PathFileType	4	(X/Y/Z)	D:\TRACE\spot_10-12-23\spot_arm_body_motion_1_10-v60.trc
DataRate	CameraRate	NumFrames	NumMarkers	Units	OrigDataRate	OrigDataStartFrame	OrigNumFrames
100.00	100.00	      21	9	mm	100.00	876	      7000
Frame#	Time	front left toe			Front right toe			aft left toe			aft right toe			Arm			FL body			FR body			AL Body			AR Body			
		X1	Y1	Z1	X2	Y2	Z2	X3	Y3	Z3	X4	Y4	Z4	X5	Y5	Z5	X6	Y6	Z6	X7	Y7	Z7	X8	Y8	Z8	X9	Y9	Z9	

876	8.750	-162.71707	21.32404	-451.74515	268.96671	27.11995	-451.88190	-131.64555	14.87679	135.49844	193.07681	20.55111	153.01363	74.83495	771.41089	-747.29962	-59.04273	605.08752	-482.01157	94.79375	610.57843	-479.02438	-81.28903	547.18854	398.09509	60.26448	546.62201	404.19635	
877	8.760	-161.75656	21.35262	-451.76843	270.04697	26.42283	-452.81937	-131.20810	14.62187	135.32332	193.80476	21.00051	153.59167	74.66463	772.12219	-747.00842	-59.37644	606.27057	-482.73035	94.27412	611.08112	-479.68268	-82.75843	547.43738	397.33374	58.61368	546.74414	403.14597	
878	8.770	-161.11046	21.01004	-452.05527	271.18887	26.24404	-451.54651	-130.29805	14.62658	134.56146	194.22554	21.21465	153.34065	74.85096	772.56219	-746.83447	-59.77358	607.00122	-483.30347	93.84808	611.37280	-480.21201	-84.07719	548.13641	396.71475	56.98228	547.19928	402.39877	
879	8.780	-160.14053	20.50819	-452.24026	272.27176	26.11085	-452.05118	-129.32219	14.68210	134.63901	194.77371	21.41342	153.33965	75.72009	772.51733	-746.92755	-59.91370	607.68518	-484.07236	93.60769	611.71509	-480.36484	-85.25388	549.00891	395.81354	56.12940	547.61334	402.00983	
880	8.790	-159.19850	20.32964	-452.43790	273.25839	26.02475	-452.01471	-128.81602	14.60769	134.48051	195.55626	21.56608	153.39093	76.41936	772.44836	-747.05096	-60.18475	608.22113	-484.90485	93.30945	612.15240	-481.32281	-86.13802	549.96722	395.35034	55.48132	548.19446	401.84851	
881	8.800	-158.24655	20.01395	-452.65616	274.04172	26.01848	-452.02036	-127.85448	14.66218	134.23219	196.50287	21.65311	153.31734	77.38317	772.58270	-747.41333	-60.52868	608.52820	-485.57504	93.03106	612.65790	-482.21274	-86.77101	550.43854	394.51208	54.60662	548.88019	400.50424	
882	8.810	-157.76541	19.69745	-452.68881	274.55634	25.73610	-452.47104	-126.89165	14.81034	134.24768	197.44507	21.78707	153.20267	77.96302	772.76727	-747.68622	-60.71777	608.85150	-486.59509	92.98748	612.96942	-482.44913	-86.79841	551.32404	393.67111	54.56634	549.63098	399.71698	
883	8.820	-157.10313	19.29243	-452.79703	275.25470	25.61125	-452.74973	-126.18764	14.89981	134.11887	198.15656	21.80885	152.99673	78.30083	772.78412	-748.02228	-60.88157	608.93390	-487.23346	92.67008	613.27295	-483.49640	-86.67956	551.27209	392.75436	54.43449	550.47888	398.83740	
884	8.830	-156.25656	18.80443	-452.87448	276.45255	25.48373	-452.76843	-125.48660	14.78136	134.03792	198.96785	21.90548	152.60686	78.36198	772.72760	-748.33350	-61.17013	609.07562	-488.29434	92.63162	613.57349	-484.65106	-86.70851	551.88812	391.90375	54.44091	550.92511	398.07187	
885	8.840	-155.49701	18.25888	-452.97342	277.09741	25.33677	-452.71945	-124.53188	14.75512	133.94897	199.74950	22.12024	152.53688	78.33246	772.70471	-748.66992	-61.21041	608.96454	-488.98981	92.22574	613.61127	-485.41766	-86.63534	553.07538	391.11670	54.66636	551.69037	397.04333	
886	8.850	-154.98116	18.09304	-453.06168	277.28555	24.92402	-453.19510	-123.84285	14.86456	133.82042	200.51970	22.17635	152.33530	78.34077	772.70935	-749.03632	-61.26230	609.12372	-490.17957	92.53509	613.74890	-486.70856	-86.18330	553.88989	390.22708	55.14032	552.39392	395.93448	
887	8.860	-154.33446	17.85468	-453.15784	277.90219	24.71439	-453.70200	-123.10219	15.01920	133.67593	201.53145	22.20540	152.13387	78.34854	772.64020	-749.47522	-61.20718	608.97546	-490.86328	92.48797	613.78497	-487.98810	-85.79990	554.67694	389.19269	55.82629	553.24097	395.09308	
888	8.870	-153.62961	17.46350	-453.22336	279.26443	24.76085	-453.42615	-122.40167	15.43904	133.58531	202.12782	22.27029	151.95088	78.65355	772.44501	-749.86029	-61.18024	608.84424	-492.02228	92.49822	613.55176	-488.61615	-84.91308	555.29852	388.53998	56.80242	554.08606	394.63431	
889	8.880	-152.90808	16.92266	-453.49768	280.08047	24.49314	-453.46490	-121.43955	15.33031	133.38623	202.89250	22.26515	151.68109	79.29329	772.21039	-750.20148	-60.96324	608.54126	-492.99582	92.68240	613.41602	-490.15219	-84.24731	555.79706	387.26312	57.07621	554.64532	392.87875	
890	8.890	-152.19711	16.46163	-453.60873	280.23120	24.04391	-453.87363	-120.72236	15.21910	133.31589	204.03008	22.28241	151.35080	80.06052	771.98029	-750.59222	-60.70557	608.24835	-494.06387	92.91933	613.11249	-490.77283	-83.75143	556.62842	386.58096	58.07249	555.50513	392.34296	
891	8.900	-151.58809	16.17203	-453.66486	280.46420	23.57473	-454.52774	-119.59737	14.93560	133.30435	204.61182	22.28091	151.25977	80.95257	771.83063	-750.78772	-60.30299	607.91376	-494.93851	93.04437	612.92493	-492.30960	-82.68069	557.12708	385.46796	58.76894	556.04846	390.74127	
892	8.910	-151.02438	15.95291	-453.67694	281.65265	23.39917	-454.36331	-119.19122	15.64030	132.98370	205.25537	22.22463	151.14563	82.06433	771.55066	-751.05933	-59.82207	607.73157	-496.01190	93.77770	612.73505	-492.94476	-82.02850	558.02087	384.41830	59.61071	556.97589	390.08908	
893	8.920	-150.32826	15.79374	-453.80814	282.52722	23.29413	-454.35846	-118.68863	15.94162	132.73792	206.13898	22.24879	151.07854	83.13537	771.32117	-751.38348	-59.05370	607.52148	-497.04617	94.25427	612.41571	-494.17966	-80.98547	558.75293	383.43320	60.53694	557.56805	388.89349	
894	8.930	-149.51849	15.47317	-453.99411	282.76218	22.56084	-455.30676	-117.76743	15.81691	132.49658	206.70415	22.21397	150.81888	84.26814	771.04700	-751.40985	-58.38303	607.33014	-498.27182	95.45120	612.39740	-495.48364	-80.28526	559.27899	382.38864	61.09444	558.17212	387.71390	
895	8.940	-148.62805	14.91914	-454.10776	283.48926	22.50621	-454.67993	-117.16138	15.75616	132.40961	207.36539	22.19987	150.64850	85.45937	770.80652	-751.52679	-57.30654	607.13379	-499.24289	96.19286	612.00946	-496.65277	-79.70336	559.93939	381.27039	61.85437	558.63806	386.89575	
896	8.950	-148.12073	15.00846	-454.29904	284.18384	22.22405	-454.75156	-116.47361	15.72723	132.41777	208.07262	22.24891	150.52727	86.45612	770.70496	-751.59943	-55.97034	607.13257	-500.33578	97.49847	612.04980	-497.50342	-78.90270	560.17902	380.40991	62.88301	559.12122	386.50415	
